<svg width="15" height="15" viewBox="0 0 15 15" xmlns="http://www.w3.org/2000/svg"><title>instagram copy</title><g fill="none" fill-rule="evenodd"><path d="M-5-5h25v25H-5z"/><g fill="#9B9B9B"><path d="M7.488.024C5.455.024 5.2.032 4.401.069 3.604.105 3.059.23 2.583.416c-.492.19-.91.446-1.326.862A3.661 3.661 0 0 0 .393 2.6C.208 3.076.081 3.62.045 4.415.01 5.212 0 5.466 0 7.495c0 2.03.009 2.284.045 3.081.036.795.163 1.338.348 1.814.192.491.448.908.864 1.323.416.416.834.671 1.326.862.476.185 1.02.311 1.818.347.799.037 1.054.045 3.087.045 2.034 0 2.289-.008 3.088-.045.797-.036 1.34-.162 1.817-.347.493-.19.91-.446 1.327-.862.416-.415.672-.832.863-1.323.185-.476.312-1.019.348-1.814.037-.797.045-1.051.045-3.08 0-2.03-.008-2.284-.045-3.081-.036-.795-.163-1.339-.348-1.814a3.662 3.662 0 0 0-.863-1.323 3.671 3.671 0 0 0-1.327-.862c-.476-.185-1.02-.311-1.817-.347-.8-.037-1.054-.045-3.088-.045m0 1.346c2 0 2.236.007 3.026.043.73.034 1.127.155 1.39.258.35.135.6.297.861.559.263.261.425.51.56.859.103.263.225.659.259 1.387.036.788.043 1.024.043 3.02 0 1.995-.007 2.23-.043 3.019-.034.728-.156 1.124-.258 1.387a2.314 2.314 0 0 1-.56.86 2.32 2.32 0 0 1-.862.558c-.263.102-.66.224-1.39.257-.79.036-1.026.044-3.026.044-2 0-2.236-.008-3.026-.044-.73-.033-1.126-.155-1.39-.257a2.32 2.32 0 0 1-.861-.559 2.316 2.316 0 0 1-.56-.859c-.103-.263-.225-.659-.258-1.387-.036-.788-.044-1.024-.044-3.02 0-1.995.008-2.23.044-3.019.033-.728.155-1.124.258-1.387.136-.349.298-.598.56-.86a2.32 2.32 0 0 1 .86-.558c.265-.103.661-.224 1.391-.258.79-.036 1.027-.043 3.026-.043"/><path d="M7.488 9.986a2.493 2.493 0 0 1-2.496-2.49 2.493 2.493 0 0 1 2.496-2.491 2.493 2.493 0 0 1 2.496 2.49 2.493 2.493 0 0 1-2.496 2.491m0-6.327a3.841 3.841 0 0 0-3.845 3.836 3.841 3.841 0 0 0 3.845 3.837 3.841 3.841 0 0 0 3.845-3.837A3.841 3.841 0 0 0 7.488 3.66m4.896-.153a.898.898 0 1 1-1.795-.002.898.898 0 0 1 1.795.002"/></g></g></svg>