<svg width="80" height="12" viewBox="0 0 80 12" xmlns="http://www.w3.org/2000/svg" xmlns:xlink="http://www.w3.org/1999/xlink"><title>Group Copy</title><defs><path id="a" d="M0 0h80v12H0z"/></defs><g fill="none" fill-rule="evenodd"><mask id="b" fill="#fff"><use xlink:href="#a"/></mask><g mask="url(#b)" fill="#000"><path d="M4.493-.457H1.578v3.734H0v2.136h1.578v6.37h2.915v-6.37h1.82V3.277h-1.82V-.457zM9.48 7.31c0-1.077.854-1.442 1.523-1.442.612 0 1.41.474 1.41 1.478v4.436h2.952V7.256c0-2.647-1.132-4.198-3.453-4.198-.76 0-1.824 0-2.432.866V-.457H6.528v12.24H9.48V7.311zm15.366.091c0 .22-.038.694-.056.931h-6.201c.111.803 1.04 1.296 1.987 1.296.482 0 1.15-.128 1.652-.712.353.274 1.56 1.096 2.042 1.442-.91 1.187-2.543 1.588-3.917 1.588-2.488 0-4.604-1.788-4.604-4.472 0-2.683 2.116-4.417 4.604-4.417 2.469 0 4.493 1.66 4.493 4.344zm-6.257-.693h3.453c-.278-1.096-1.28-1.26-1.726-1.26-.446 0-1.504.164-1.727 1.26zm15.273.602c0-1.095.63-1.442 1.3-1.442.612 0 1.41.347 1.41 1.478v4.436h2.952V7.256c0-2.647-.836-4.198-3.453-4.198-.91 0-1.877 0-2.58 1.16-.784-1.16-1.737-1.16-3.043-1.16-.34 0-1.709 0-2.267 1.16v-.941h-2.952v8.506h2.952V7.311c0-1.095.63-1.442 1.3-1.442.612 0 1.41.347 1.41 1.478v4.436h2.97V7.311zm12.654-3.579v-.455h2.952v8.506h-2.952v-.51c-.57.51-1.448.674-2.394.674-2.135 0-4.215-1.679-4.215-4.435 0-2.757 2.08-4.454 4.215-4.454.872 0 1.678.116 2.394.674zM42.915 7.53c0 .967.817 1.77 1.8 1.77.985 0 1.801-.803 1.801-1.77s-.816-1.77-1.8-1.77c-.984 0-1.801.803-1.801 1.77zM53.18 8.99v2.793h-2.952V3.277h2.803v.94c.612-.847 1.886-.94 2.364-.94h1.084v2.447c-.632 0-1.144-.011-1.635.2-.491.21-1.664.51-1.664 3.066zm9.437 2.793l-2.47-3.067v3.067h-2.951V-.457h2.952v5.796l1.689-2.062h3.62l-3.193 3.778 3.88 4.728h-3.527zm11.43-4.38c0 .218-.038.693-.056.93H67.79c.111.803 1.04 1.296 1.986 1.296.483 0 1.151-.128 1.653-.712.352.274 1.559 1.096 2.042 1.442-.91 1.187-2.544 1.588-3.918 1.588-2.487 0-4.604-1.788-4.604-4.472 0-2.683 2.117-4.417 4.604-4.417 2.47 0 4.493 1.66 4.493 4.344zm-6.257-.694h3.453c-.279-1.096-1.281-1.26-1.727-1.26-.445 0-1.504.164-1.726 1.26zM78.18-.457v3.734H80v2.136h-1.82v6.37h-2.914v-6.37h-1.578V3.277h1.578V-.457h2.915z"/></g></g></svg>