<svg width="20" height="10" viewBox="0 0 20 10" xmlns="http://www.w3.org/2000/svg"><title>soundcloud icon</title><g fill="none" fill-rule="evenodd"><path d="M-3-8v25h25V-8z"/><path d="M17.575 10H10V1.565a4.039 4.039 0 0 1 2.301-.731c2.261 0 4.094 1.867 4.264 4.232C18.192 4.27 20 5.55 20 7.411 20 8.84 18.914 10 17.575 10zm-8.409 0h-.834V2.875l.317.154a4.62 4.62 0 0 1 .517-.715V10zM7.5 10h-.834V2.619c.314-.034.41-.058.834.007V10zm-1.666 0H5V3.277a3.41 3.41 0 0 1 .834-.47V10zm-1.668 0h-.832V5.277l.257.152c.114-.469.317-.898.577-1.279V10h-.002zM2.5 10c-.304 0-.461.004-.834-.115v-4.74c.395-.126.582-.121.834-.101V10zM.834 9.405A2.534 2.534 0 0 1 0 7.515c0-.76.328-1.433.834-1.89v3.78z" fill="#9B9B9B"/></g></svg>