<svg width="28" height="25" viewBox="0 0 28 25" xmlns="http://www.w3.org/2000/svg" xmlns:xlink="http://www.w3.org/1999/xlink"><title>arrow photo swipe feed copy 46</title><defs><path d="M24.673 6.834a5.751 5.751 0 0 0-8.145 0L15 8.364l-1.528-1.53a5.75 5.75 0 0 0-8.145 0 6.505 6.505 0 0 0 0 9.185L15 25.714l9.673-9.695a6.506 6.506 0 0 0 0-9.185z" id="b"/><filter x="-13%" y="-14.6%" width="125.9%" height="129.2%" filterUnits="objectBoundingBox" id="a"><feOffset in="SourceAlpha" result="shadowOffsetOuter1"/><feMorphology radius="1.563" in="SourceAlpha" result="shadowInner"/><feOffset in="shadowInner" result="shadowInner"/><feComposite in="shadowOffsetOuter1" in2="shadowInner" operator="out" result="shadowOffsetOuter1"/><feGaussianBlur stdDeviation="1" in="shadowOffsetOuter1" result="shadowBlurOuter1"/><feColorMatrix values="0 0 0 0 0 0 0 0 0 0 0 0 0 0 0 0 0 0 0.7 0" in="shadowBlurOuter1"/></filter></defs><g fill="none" fill-rule="evenodd"><path d="M-1-3h30v30H-1z"/><g transform="translate(-1 -3)"><use fill="#000" filter="url(#a)" xlink:href="#b"/><path stroke="#FFF" stroke-width="1.563" d="M15 24.608l-9.12-9.141a5.724 5.724 0 0 1 0-8.081 4.97 4.97 0 0 1 7.039 0l1.528 1.53.553.555.553-.554 1.528-1.531a4.97 4.97 0 0 1 7.04 0 5.724 5.724 0 0 1 0 8.081L15 24.607z"/></g></g></svg>