<svg width="20" height="12" viewBox="0 0 20 12" xmlns="http://www.w3.org/2000/svg"><title>vk copy</title><g fill="none" fill-rule="evenodd"><path d="M-2-7h25v25H-2z"/><path d="M19.054.981H15.92c-.26 0-.5.144-.623.373 0 0-1.25 2.302-1.652 3.077-1.08 2.086-1.779 1.431-1.779.463V1.557c0-.581-.47-1.052-1.052-1.052H8.458a1.887 1.887 0 0 0-1.667.774s1.196-.193 1.196 1.419c0 .4.02 1.55.04 2.514a.695.695 0 0 1-1.213.48 20.515 20.515 0 0 1-2.38-4.327.66.66 0 0 0-.6-.384H.987a.484.484 0 0 0-.457.653c.865 2.371 4.59 9.824 8.84 9.824h1.79c.39 0 .706-.317.706-.707V9.67a.695.695 0 0 1 1.17-.507l2.142 2.012c.192.181.446.282.71.282H18.7c1.356 0 1.356-.942.617-1.67-.52-.512-2.398-2.492-2.398-2.492a.97.97 0 0 1-.075-1.26c.607-.8 1.6-2.107 2.02-2.667.576-.766 1.618-2.388.19-2.388z" fill="#9B9B9B"/></g></svg>